# xmcd
#
# Track frame offsets:
#	150
#	22302
#	42775
#	79699
#	95070
#	114264
#	131138
#	147679
#	166026
#	184840
#	208044
#	223257
#	239816
#	259139
#	278437
#	296753
#	316775
#	334370
#
# Disc length: 4756
#
# Revision: 2
# Processed by: cddbd v1.5.1PL0 Copyright (c) Steve Scherf et al.
# Submitted via: Audion 2.6.0 (http://www.panic.com/audion/)
# Normalized: r0:DSETVAR1,TDELIM( - ),TSWAP
#
DISCID=1e129212
DTITLE=Various Artist - MICHELLE'S SPRING 2002  - A -
DYEAR=1900
DGENRE=
TTITLE0=EMINEM - Whith Out Me
TTITLE1=ANGIE STONE - Wish I Didn't Miss You
TTITLE2=DIRTY VEGAS - Days Go By
TTITLE3=TRICK DADDY  feat.  TRINA - We Got
TTITLE4=PAULINA RUBIO - I'm So In Love
TTITLE5=SHAKIRA - Underneath Your Clothes
TTITLE6=PAULINA RUBIO - Don't Say Good Bye
TTITLE7=NO DOUBT - Keep On Dancing
TTITLE8=INDIA  AIRE - Video
TTITLE9=SINNEAD O'CONNOR - Nothing Compares To You
TTITLE10=THALIA - Un Pacto entre Los Dos
TTITLE11=KABAH - La Vida que Va
TTITLE12=CELIA CRUZ - La Negra
TTITLE13=CRISTIAN CASTRO - Lloviendo Estrellas
TTITLE14=PILAR MONTENEGRO - Quítame ese Hombre (Norteña)
TTITLE15=ILEGALES - La Morena
TTITLE16=KUMBIA KINGS - Shhhh!
TTITLE17=EDDIE SANTIAGO - El Venao
EXTD=
EXTT0=
EXTT1=
EXTT2=
EXTT3=
EXTT4=
EXTT5=
EXTT6=
EXTT7=
EXTT8=
EXTT9=
EXTT10=
EXTT11=
EXTT12=
EXTT13=
EXTT14=
EXTT15=
EXTT16=
EXTT17=
PLAYORDER=
